<?xml version="1.0" encoding="UTF-8"?>
<svg width="951px" height="551px" viewBox="0 0 951 551" version="1.1" xmlns="http://www.w3.org/2000/svg" xmlns:xlink="http://www.w3.org/1999/xlink">
    <!-- Generator: sketchtool 55.1 (78136) - https://sketchapp.com -->
    <title>FA3F1E73-C7F7-4E39-BE38-D0BC12DA39A5</title>
    <desc>Created with sketchtool.</desc>
    <defs>
        <polygon id="path-1" points="0 231 129.5 0 259 231"></polygon>
        <linearGradient x1="50%" y1="1.05310389%" x2="50%" y2="98.8888302%" id="linearGradient-3">
            <stop stop-color="#FFCB00" offset="0%"></stop>
            <stop stop-color="#FF4200" offset="100%"></stop>
        </linearGradient>
        <linearGradient x1="50%" y1="1.05310389%" x2="50%" y2="98.8888302%" id="linearGradient-4">
            <stop stop-color="#FFCB00" offset="0%"></stop>
            <stop stop-color="#FF4200" offset="100%"></stop>
        </linearGradient>
        <linearGradient x1="50%" y1="1.05310389%" x2="50%" y2="98.8888302%" id="linearGradient-5">
            <stop stop-color="#FFCB00" offset="0%"></stop>
            <stop stop-color="#FF4200" offset="100%"></stop>
        </linearGradient>
    </defs>
    <g id="new-design" stroke="none" stroke-width="1" fill="none" fill-rule="evenodd">
        <g id="homepage_UI" transform="translate(0.000000, -403.000000)">
            <g id="illustration" transform="translate(-199.000000, 403.000000)">
                <g id="mountain" fill="#D3E1E5" fill-rule="nonzero" opacity="0.200000003">
                    <polygon id="Path-7" points="171.327842 498 463.385221 0 752.019785 498"></polygon>
                    <polygon id="Path-7-Copy-2" points="1.70530257e-13 498 292.057379 0 580.691943 498"></polygon>
                    <polygon id="Path-7-Copy" points="379.944685 498 672.002064 0 960.636628 498"></polygon>
                    <polygon id="Path-7-Copy-3" points="568.466999 498 860.524378 0 1149.15894 498"></polygon>
                </g>
                <g id="tent" transform="translate(279.000000, 222.000000)">
                    <path d="M46,274.535394 L199.093783,1.13686838e-13" id="Path" stroke="#4D302E" stroke-width="4" stroke-linecap="round" stroke-linejoin="round" fill-rule="nonzero"></path>
                    <path d="M144,274.535394 L297.093783,1.13686838e-13" id="Path-Copy" stroke="#4D302E" stroke-width="4" stroke-linecap="round" stroke-linejoin="round" fill-rule="nonzero" transform="translate(220.546892, 137.267697) scale(1, -1) translate(-220.546892, -137.267697) "></path>
                    <g id="Rectangle" transform="translate(42.000000, 44.000000)">
                        <mask id="mask-2" fill="white">
                            <use xlink:href="#path-1"></use>
                        </mask>
                        <use id="Mask" fill="#C82923" fill-rule="nonzero" xlink:href="#path-1"></use>
                        <polygon id="Mask" fill="#4D302E" fill-rule="nonzero" mask="url(#mask-2)" points="112 30 129.5 0 147 30"></polygon>
                        <g id="Group-8" mask="url(#mask-2)" fill="#FFFFFF">
                            <g transform="translate(108.000000, 41.000000)">
                                <path d="M29.4769401,19.4389572 C25.415285,14.1437848 15.5653539,16.759509 16.119147,23.9239228 C16.3755608,27.2299917 19.7453539,30.1415779 23.0802505,28.5848883 C25.9888022,27.2284745 26.163285,23.3306814 23.6203884,21.5782676 C23.1303194,21.24144 22.2745953,21.4144055 22.9649401,22.95744 C23.347285,23.8101297 23.7918367,25.3592331 23.1379056,26.0344055 C21.2322505,28.0007503 19.0261815,27.2466814 18.2008022,25.20144 C17.7243884,24.0164745 17.979285,22.567509 18.6665953,21.4022676 C19.3083884,20.179371 20.5874229,19.2902676 21.8740436,18.8790952 C24.6414919,17.9945434 27.3057677,19.4055779 28.4710091,21.9590952 C31.3689401,28.3087503 23.6340436,33.3975779 18.1264574,30.3585434 C13.5125263,27.8126124 12.1242505,21.687509 14.9523884,17.3133021 C18.3540436,12.0469572 27.6729401,12.3413021 30.7620436,17.1615779 C31.0745953,17.6486124 31.8893539,17.3466814 31.7194229,16.7579917 C29.6377677,9.52985379 18.6787332,8.39344 13.3941815,15.8491641 C8.8728022,22.2291641 12.379147,32.1215779 20.3765263,33.3748193 C27.9824574,34.567371 34.517216,26.0116469 29.4769401,19.4389572" id="Fill-650"></path>
                                <path d="M17.8943194,6.27840552 C17.2768022,4.30750897 16.6790091,1.94212966 15.5365263,0.204888276 C15.3089401,-0.141042759 14.679285,-0.0378703448 14.7065953,0.430957241 C14.8234229,2.50502621 15.7322505,4.73840552 16.4104574,6.68806069 C16.7336298,7.61357793 18.193216,7.23275034 17.8943194,6.27840552" id="Fill-651"></path>
                                <path d="M30.3265953,2.12268138 C29.2053539,3.32130207 28.5241125,4.74750897 27.9050781,6.2556469 C27.5196988,7.19178483 29.0870091,7.64695724 29.4420436,6.67895724 C29.9488022,5.29068138 30.6118367,3.97068138 31.1185953,2.58240552 C31.2824574,2.13330207 30.639147,1.78737103 30.3265953,2.12268138" id="Fill-652"></path>
                                <path d="M6.74714703,13.6901297 C4.97652634,12.9876469 2.8705953,12.3640607 0.949767718,12.4581297 C0.552250477,12.4778538 0.38990565,13.0013021 0.743422891,13.2167503 C2.39418151,14.2196469 4.43487117,14.8447503 6.26769875,15.4319228 C7.39652634,15.7945434 7.80314703,14.1088883 6.74714703,13.6901297" id="Fill-653"></path>
                                <path d="M21.7830091,41.1324745 C21.719285,40.0142676 21.6722505,38.8884745 21.4476988,37.7884745 C21.2883884,37.0146814 20.2642505,37.2999228 20.1823194,37.9599228 C20.0427332,39.0826814 20.0928022,40.2281986 20.123147,41.3585434 C20.1474229,42.2415779 19.9441125,43.15344 20.6708712,43.7648883 C20.8878367,43.9469572 21.1897677,43.9742676 21.405216,43.7648883 C22.1304574,43.0563366 21.8345953,42.0716469 21.7830091,41.1324745" id="Fill-654"></path>
                                <path d="M34.0863194,37.9401986 C33.4445263,37.1603366 32.8528022,36.3501297 32.2595608,35.5323366 C31.7740436,34.8632331 31.343147,34.1046124 30.6467332,33.6373021 C30.3539056,33.4415779 29.8744574,33.6964745 29.9093539,34.0606124 C29.9988712,35.0043366 30.5708712,35.8373021 31.0806643,36.6156469 C31.6450781,37.4804745 32.2747332,38.3028193 32.9134919,39.1145434 C33.1243884,39.3830952 33.6417677,39.4316469 33.9194229,39.243509 C33.9770781,39.2040607 34.0347332,39.1630952 34.0863194,39.1145434 C34.4368022,38.7868193 34.3639746,38.2785434 34.0863194,37.9401986" id="Fill-655"></path>
                                <path d="M8.96838841,39.7699917 C9.42962979,38.8717848 9.93790565,38.00544 10.4522505,37.1360607 C10.8740436,36.4244745 11.3990091,35.7295779 11.5522505,34.9041986 C11.6159746,34.5567503 11.1896298,34.2184055 10.8694919,34.3959228 C10.0380436,34.8510952 9.50245737,35.7068193 8.98962979,36.4836469 C8.42066427,37.34544 7.91542289,38.2512331 7.42535393,39.1585434 C7.26149186,39.4589572 7.42383668,39.9550952 7.70452634,40.1326124 C7.76369875,40.1705434 7.82590565,40.2084745 7.89114703,40.2357848 C8.33114703,40.4269572 8.76962979,40.1584055 8.96838841,39.7699917" id="Fill-656"></path>
                                <path d="M42.7315608,25.37744 C41.6922505,24.7705434 40.4116988,24.6870952 39.2297677,24.5399228 C37.9689401,24.3851641 36.6777677,24.2531641 35.435147,24.5626814 C34.9390091,24.6855779 35.0345953,25.3137159 35.435147,25.4760607 C36.5609401,25.9342676 37.8035608,26.0601986 38.9900436,26.2968883 C40.0885263,26.515371 41.2097677,26.9280607 42.3310091,26.8643366 C43.097216,26.8188193 43.4446643,25.7931641 42.7315608,25.37744" id="Fill-657"></path>
                                <path d="M6.81542289,24.9465434 C5.61073324,24.9617159 4.47128496,25.5488883 3.38190565,26.031371 C2.22121599,26.5472331 1.04838841,27.099509 0.139560822,28.0053021 C-0.221542626,28.3679228 0.183560822,28.8564745 0.611422891,28.7881986 C1.81156082,28.6000607 2.94342289,28.0705434 4.08287117,27.6608883 C5.13431944,27.2830952 6.30866427,27.0585434 7.23721599,26.4258538 C7.87142289,25.99344 7.63928496,24.9344055 6.81542289,24.9465434" id="Fill-658"></path>
                                <path d="M42.7664574,13.9662676 C41.1217677,14.0072331 39.4042505,14.3986814 37.8354229,14.8750952 C37.5896298,14.94944 37.4303194,15.1648883 37.4196988,15.4197848 C37.4166643,15.4516469 37.4181815,15.483509 37.4242505,15.515371 C37.4303194,15.5320607 37.4363884,15.5517848 37.4409401,15.5684745 C37.5137677,15.8157848 37.7322505,15.9735779 37.9841125,15.9826814 C39.6257677,16.04944 41.3857677,15.9948193 42.9894919,15.6200607 C43.9134919,15.4046124 43.7162505,13.9419917 42.7664574,13.9662676" id="Fill-659"></path>
                            </g>
                        </g>
                        <rect fill="#F5E073" fill-rule="nonzero" mask="url(#mask-2)" x="-7" y="204" width="274" height="25"></rect>
                        <rect id="Rectangle-Copy-16" fill="#F5E073" fill-rule="nonzero" mask="url(#mask-2)" x="39" y="95" width="182" height="35"></rect>
                        <path d="M69,108 L79,108 L79,118 L69,118 L69,108 Z M85,108 L95,108 L95,118 L85,118 L85,108 Z M101,108 L111,108 L111,118 L101,118 L101,108 Z M117,108 L127,108 L127,118 L117,118 L117,108 Z M133,108 L143,108 L143,118 L133,118 L133,108 Z M149,108 L159,108 L159,118 L149,118 L149,108 Z M165,108 L175,108 L175,118 L165,118 L165,108 Z M181,108 L191,108 L191,118 L181,118 L181,108 Z" id="Combined-Shape" fill="#FFFFFF" fill-rule="nonzero" mask="url(#mask-2)"></path>
                    </g>
                    <rect id="Rectangle-Copy-14" fill="#F5E073" fill-rule="nonzero" x="205" y="206" width="16" height="16"></rect>
                    <rect id="Rectangle-Copy-8" fill="#F5E073" fill-rule="nonzero" x="122" y="206" width="16" height="16"></rect>
                    <rect id="Rectangle-Copy-22" fill="#F5E073" fill-rule="nonzero" x="92" y="206" width="16" height="16"></rect>
                    <rect id="Rectangle-Copy-15" fill="#F5E073" fill-rule="nonzero" x="235" y="206" width="16" height="16"></rect>
                    <path d="M0,274.535394 L343.403635,274.535394" id="Path-2" stroke="#C82923" stroke-width="4" stroke-linecap="round" stroke-linejoin="round" fill-rule="nonzero"></path>
                    <polygon id="Path-3" fill="#222222" fill-rule="nonzero" points="124 272.529037 171.344975 181.529037 219 272.529037"></polygon>
                </g>
                <g id="fire" transform="translate(409.000000, 470.000000)">
                    <g id="Group" transform="translate(19.000000, 0.000000)" fill-rule="nonzero">
                        <polygon id="Path-4-Copy" fill="#AAAAAA" transform="translate(24.263693, 53.034670) scale(-1, 1) translate(-24.263693, -53.034670) " points="20.9525805 66.5941938 27.574806 66.5941938 25.686042 39.4751462 23.2065173 39.4751462"></polygon>
                        <polygon id="Path-4-Copy" fill="#AAAAAA" transform="translate(31.905910, 49.383648) scale(-1, 1) rotate(45.000000) translate(-31.905910, -49.383648) " points="28.5783056 65.2652394 35.2335144 65.2972071 33.1724528 33.4820586 30.6805783 33.4700891"></polygon>
                        <polygon id="Path-4-Copy" fill="#AAAAAA" transform="translate(34.506515, 44.092637) scale(-1, 1) rotate(90.000000) translate(-34.506515, -44.092637) " points="32.435808 54.4944936 36.5772221 54.4944936 35.9430336 33.6907801 33.4388072 33.6907801"></polygon>
                        <polygon id="Path-4-Copy-3" fill="#AAAAAA" transform="translate(10.550724, 44.092637) rotate(90.000000) translate(-10.550724, -44.092637) " points="8.48001671 54.4944936 12.6214308 54.4944936 11.9872423 33.6907801 9.48301591 33.6907801"></polygon>
                        <polygon id="Path-4-Copy-2" fill="#AAAAAA" transform="translate(15.056224, 50.445339) rotate(45.000000) translate(-15.056224, -50.445339) " points="11.7286212 65.1348694 18.3838271 65.1658564 16.329538 35.7364245 13.8376645 35.7248222"></polygon>
                        <path d="M24.1046583,51.9283098 C31.2886145,51.9283098 37.1123616,46.0465451 37.1123616,38.7910207 C37.1123616,33.9540045 33.0172683,26.4481106 24.8270817,16.273339 L22.1370803,27.9518243 L18.6727834,25.3827887 L17.008666,34.9551107 L13.814902,31.4013061 C12.8930006,32.6452314 12.2431967,33.7806594 11.8654902,34.8075901 C11.2989304,36.3479861 11.096955,37.6941926 11.096955,38.7910207 C11.096955,46.0465451 16.9207021,51.9283098 24.1046583,51.9283098 Z" id="Oval" fill="url(#linearGradient-3)"></path>
                        <path d="M21.1940476,15.2807018 C21.1940476,11.8421249 22.0635438,9.29534123 23.8025361,7.64035088 C25.5415285,5.98536053 24.6720323,3.4385769 21.1940476,0 C20.9701991,3.25974838 20.100703,5.806532 18.5855591,7.64035088 C17.0704153,9.47416975 17.9399115,12.0209534 21.1940476,15.2807018 Z" id="Oval-Copy" fill="url(#linearGradient-4)"></path>
                        <path d="M29.4645321,15.9173977 C29.4645321,13.0519169 30.1891123,10.9295972 31.6382725,9.5504386 C33.0874328,8.17127997 32.3628527,6.04896028 29.4645321,3.18347953 C30.727152,5.13017956 30.727152,6.86762078 29.4645321,8.39580317 C28.2019123,9.92398557 28.2019123,12.4311837 29.4645321,15.9173977 Z" id="Oval-Copy-5" fill="url(#linearGradient-5)"></path>
                        <path d="M14.3345586,28.0146199 C14.3345586,25.1491391 15.0591388,23.0268194 16.5082991,21.6476608 C17.9574593,20.2685022 17.2328792,18.1461825 14.3345586,15.2807018 C15.5971785,17.2274018 15.5971785,18.964843 14.3345586,20.4930254 C13.0719388,22.0212078 13.0719388,24.528406 14.3345586,28.0146199 Z" id="Oval-Copy-6" fill="url(#linearGradient-5)"></path>
                    </g>
                    <g id="Group-5" transform="translate(0.000000, 46.000000)">
                        <path d="M80.6527307,0.193649394 C78.3196377,-0.403539637 74.1050605,0.193649394 72.143261,4.66088299 C71.3611745,6.44466066 73.9049306,10.5951244 76.7659978,10.959929 C79.9549094,11.3662772 85.229385,8.62829533 85.6941603,5.19186193 C85.9746054,3.11987564 82.3828008,0.637646456 80.6527307,0.193649394" id="Fill-336" fill="#959191"></path>
                        <path d="M66.0390018,23.2798371 C65.9900165,23.1089628 65.9857025,22.9185614 66.0344444,22.7065439 C66.1133376,22.5647918 66.2031125,22.4270141 66.3051296,22.2985099 C66.3064898,22.1713305 66.3540977,22.0441511 66.4669966,21.9408178 C68.6936881,19.9032976 73.6231507,19.1892381 76.1395706,21.1790661 C76.7627912,21.6703802 77.1057362,22.1845948 77.236446,22.6950504 C77.2517223,22.6842524 77.2669756,22.6733954 77.2822057,22.6624792 C77.291223,22.7658222 77.2926258,22.8688201 77.2869189,22.9712754 C77.2881489,22.9823947 77.2892832,22.9935099 77.2903226,23.0046207 C77.2883913,23.0059337 77.2864596,23.0072458 77.2845275,23.0085571 C77.1579061,24.7533924 74.9816597,26.3334386 73.2592004,26.7689131 C70.9965904,27.3402313 66.261233,27.4243684 66.0101256,24.0507415 C65.9896619,23.7781488 66.0006756,23.521479 66.0390018,23.2798371 Z" id="Combined-Shape" fill="#B8B2B3" transform="translate(71.645161, 23.535714) scale(-1, 1) translate(-71.645161, -23.535714) "></path>
                        <path d="M37.6054444,27.8460598 C35.3807243,25.7577942 32.1529904,25.0052428 29.1236993,25 C26.6087397,24.9961915 22.6668813,25.1435984 21.2926307,27.5939163 C20.75805,28.5481825 21.063139,29.361507 21.3614783,30.7579942 C21.8488108,33.0389233 25.2709377,33.266499 27.3174642,33.5302799 C30.49255,33.9388817 34.8852921,33.8470756 37.5284971,31.8040665 C39.1119902,30.5821402 39.006694,29.1597922 37.6054444,27.8460598" id="Fill-337" fill="#959191"></path>
                        <path d="M15.1326137,16.1514337 C12.6952059,14.208239 7.91920408,14.9055638 5.76374507,16.8953332 C5.6543911,16.9975385 5.60827797,17.1204437 5.60564294,17.2446425 C5.18403726,17.7828376 4.94688407,18.4491128 5.01012492,19.2589929 C5.26045329,22.4739324 9.98111934,22.3937206 12.2367097,21.8503506 C14.6767526,21.260406 18.0324702,18.4620502 15.1326137,16.1514337" id="Fill-338" fill="#B8B2B3"></path>
                        <path d="M59.1326137,28.1514337 C56.6952059,26.208239 51.9192041,26.9055638 49.7637451,28.8953332 C49.6543911,28.9975385 49.608278,29.1204437 49.6056429,29.2446425 C49.1840373,29.7828376 48.9468841,30.4491128 49.0101249,31.2589929 C49.2604533,34.4739324 53.9811193,34.3937206 56.2367097,33.8503506 C58.6767526,33.260406 62.0324702,30.4620502 59.1326137,28.1514337" id="Fill-338-Copy" fill="#B8B2B3"></path>
                        <path d="M12.0588235,2.33813789 C10.9526562,1.28393305 9.49559384,0.437673728 8.57204848,0.196825431 C6.26188065,-0.409901701 2.08635992,0.196825431 0.142740455,4.72556309 C-0.10119031,5.29280689 -0.0203148692,6.09563455 0.292751353,6.94189387 C4.55566974,9.57938014 9.76039568,6.56548615 12.0588235,2.33813789" id="Fill-341" fill="#B8B2B3"></path>
                    </g>
                </g>
                <g id="plant" transform="translate(668.000000, 421.000000)">
                    <path d="M35.982,14.201 C33.737,14.201 31.916,16.023 31.916,18.27 L31.916,22.841 L30.038,22.841 L30.038,14.069 C30.038,11.823 28.217,10.002 25.971,10.002 C23.724,10.002 21.903,11.823 21.903,14.069 L21.903,30.45 L20.025,30.45 L20.025,4.066 C20.025,1.821 18.204,-7.10542736e-14 15.958,-7.10542736e-14 C13.711,-7.10542736e-14 11.89,1.821 11.89,4.066 L11.89,40.272 L8.135,40.272 L8.135,26.504 C8.135,24.258 6.314,22.437 4.068,22.437 C1.821,22.437 -1.70530257e-13,24.258 -1.70530257e-13,26.504 L-1.70530257e-13,44.34 C-1.70530257e-13,46.586 1.821,48.407 4.068,48.407 L11.89,48.407 L11.89,72.813 C11.89,75.06 13.711,76.881 15.958,76.881 C18.204,76.881 20.025,75.06 20.025,72.813 L20.025,63.076 L27.222,63.076 C29.469,63.076 31.29,61.254 31.29,59.008 L31.29,44.832 C31.29,42.586 29.469,40.765 27.222,40.765 C24.975,40.765 23.155,42.586 23.155,44.832 L23.155,54.94 L20.025,54.94 L20.025,38.585 L25.971,38.585 C28.217,38.585 30.038,36.765 30.038,34.518 L30.038,30.977 L35.982,30.977 C38.23,30.977 40.052,29.156 40.052,26.909 L40.052,18.27 C40.052,16.023 38.23,14.201 35.982,14.201" id="Fill-67" fill="#99B37D"></path>
                    <path d="M198.748227,26.4522704 C196.954559,26.4522704 195.49965,27.9216061 195.49965,29.7336793 L195.49965,33.4199217 L193.999201,33.4199217 L193.999201,26.3458202 C193.999201,24.5345534 192.544292,23.0660241 190.749825,23.0660241 C188.954559,23.0660241 187.49965,24.5345534 187.49965,26.3458202 L187.49965,39.5561322 L185.999201,39.5561322 L185.999201,18.2789896 C185.999201,16.4685293 184.544292,15 182.749825,15 C180.954559,15 179.49965,16.4685293 179.49965,18.2789896 L179.49965,47.4769969 L176.499551,47.4769969 L176.499551,36.3739155 C176.499551,34.5626488 175.044642,33.0941195 173.250175,33.0941195 C171.454909,33.0941195 170,34.5626488 170,36.3739155 L170,50.7575994 C170,52.5688662 171.454909,54.0373955 173.250175,54.0373955 L179.49965,54.0373955 L179.49965,73.7193975 C179.49965,75.5314707 180.954559,77 182.749825,77 C184.544292,77 185.999201,75.5314707 185.999201,73.7193975 L185.999201,65.8670803 L191.749326,65.8670803 C193.544592,65.8670803 194.999501,64.3977446 194.999501,62.5864778 L194.999501,51.1543684 C194.999501,49.3431017 193.544592,47.8745724 191.749326,47.8745724 C189.95406,47.8745724 188.49995,49.3431017 188.49995,51.1543684 L188.49995,59.3058753 L185.999201,59.3058753 L185.999201,46.1165307 L190.749825,46.1165307 C192.544292,46.1165307 193.999201,44.6488079 193.999201,42.8367347 L193.999201,39.9811267 L198.748227,39.9811267 C200.544292,39.9811267 202,38.5125974 202,36.7005242 L202,29.7336793 C202,27.9216061 200.544292,26.4522704 198.748227,26.4522704" id="Fill-67-Copy" fill="#769356" transform="translate(186.000000, 46.000000) scale(-1, 1) translate(-186.000000, -46.000000) "></path>
                    <path d="M95.605,48.798 C93.359,48.798 91.537,50.621 91.537,52.866 L91.537,57.53 L90.045,57.53 L90.045,39.8 C90.045,37.553 88.223,35.731 85.976,35.731 C83.73,35.731 81.909,37.553 81.909,39.8 L81.909,46.607 L80.136,46.607 L80.136,37.067 C80.136,34.821 78.314,33 76.068,33 C73.821,33 72,34.821 72,37.067 L72,50.675 C72,52.92 73.821,54.743 76.068,54.743 L81.909,54.743 L81.909,72.646 C81.909,74.893 83.73,76.714 85.976,76.714 C88.223,76.714 90.045,74.893 90.045,72.646 L90.045,65.665 L95.605,65.665 C97.852,65.665 99.673,63.844 99.673,61.598 L99.673,52.866 C99.673,50.621 97.852,48.798 95.605,48.798" id="Fill-78" fill="#AFCC8F"></path>
                    <path d="M232.206953,57.2032301 C230.664872,57.2032301 229.413905,58.4960196 229.413905,60.0880725 L229.413905,63.3955712 L228.389513,63.3955712 L228.389513,50.8222537 C228.389513,49.2287825 227.138547,47.9367022 225.595779,47.9367022 C224.053699,47.9367022 222.803418,49.2287825 222.803418,50.8222537 L222.803418,55.6494716 L221.586095,55.6494716 L221.586095,48.8841332 C221.586095,47.2913712 220.335128,46 218.793047,46 C217.25028,46 216,47.2913712 216,48.8841332 L216,58.5343139 C216,60.1263668 217.25028,61.4191563 218.793047,61.4191563 L222.803418,61.4191563 L222.803418,74.1151576 C222.803418,75.7086288 224.053699,77 225.595779,77 C227.138547,77 228.389513,75.7086288 228.389513,74.1151576 L228.389513,69.1645468 L232.206953,69.1645468 C233.74972,69.1645468 235,67.8731756 235,66.2804136 L235,60.0880725 C235,58.4960196 233.74972,57.2032301 232.206953,57.2032301" id="Fill-78-Copy" fill="#B9CCA3"></path>
                </g>
            </g>
        </g>
    </g>
</svg>