<?xml version="1.0" encoding="UTF-8"?>
<svg width="58px" height="24px" viewBox="0 0 58 24" version="1.1" xmlns="http://www.w3.org/2000/svg" xmlns:xlink="http://www.w3.org/1999/xlink">
    <!-- Generator: sketchtool 55.1 (78136) - https://sketchapp.com -->
    <title>446657DB-2403-4826-A36C-CD67B8FEE729</title>
    <desc>Created with sketchtool.</desc>
    <g id="new-design" stroke="none" stroke-width="1" fill="none" fill-rule="evenodd">
        <g id="homepage_UI" transform="translate(-312.000000, -1808.000000)" fill="#FFFFFF" fill-rule="nonzero">
            <g id="Group-19" transform="translate(224.000000, 1612.000000)">
                <g id="Group-13" transform="translate(54.000000, 196.000000)">
                    <path d="M42,2 L38,2 C36.8954305,2 36,2.8954305 36,4 L36,18 L90,18 L90,4 C90,2.8954305 89.1045695,2 88,2 L84,2 L84,10 L82,10 L82,2 L74,2 L74,7 L72,7 L72,2 L64,2 L64,10 L62,10 L62,2 L54,2 L54,7 L52,7 L52,2 L44,2 L44,10 L42,10 L42,2 Z M90,20 L36,20 C36,21.1045695 36.8954305,22 38,22 L88,22 C89.1045695,22 90,21.1045695 90,20 Z M38,0 L88,0 C90.209139,0 92,1.790861 92,4 L92,20 C92,22.209139 90.209139,24 88,24 L38,24 C35.790861,24 34,22.209139 34,20 L34,4 C34,1.790861 35.790861,0 38,0 Z" id="ic_brand"></path>
                </g>
            </g>
        </g>
    </g>
</svg>