<?xml version="1.0" encoding="UTF-8"?>
<svg width="16px" height="9px" viewBox="0 0 16 9" version="1.1" xmlns="http://www.w3.org/2000/svg" xmlns:xlink="http://www.w3.org/1999/xlink">
    <!-- Generator: sketchtool 55.2 (78181) - https://sketchapp.com -->
    <title>A008BA9D-2236-4788-8D32-33E431A59EFA</title>
    <desc>Created with sketchtool.</desc>
    <g id="new-design" stroke="none" stroke-width="1" fill="none" fill-rule="evenodd">
        <g id="detail_page_UI" transform="translate(-251.000000, -672.000000)" fill="#4A4A4A" fill-rule="nonzero">
            <g id="Group-2" transform="translate(251.000000, 668.000000)">
                <path d="M15.955006,8.31409163 C16.00835,8.43582231 16.00835,8.57236095 15.955006,8.69409163 C15.9256843,8.76471347 15.8876221,8.82078595 15.8390661,8.86833781 L11.5804508,12.8605382 C11.4787634,12.9566471 11.3424428,13.00989 11.2002331,13.00989 C11.0580235,13.00989 10.9217028,12.9566471 10.8215586,12.8619908 C10.7174972,12.7652083 10.6607037,12.6374104 10.6607037,12.5040916 C10.6607037,12.3707729 10.7174972,12.2429749 10.8184661,12.1490916 L13.2725774,9.85841445 L14.1878535,9.00409163 L0.533344434,9.00409163 C0.238786437,9.00409163 4.17443857e-14,8.780234 4.17443857e-14,8.50409163 C4.17443857e-14,8.22794925 0.238786437,8.00409163 0.533344434,8.00409163 L14.1878535,8.00409163 L10.819193,4.85976881 C10.6100271,4.66367821 10.6100271,4.34450505 10.8200155,4.14764502 C11.0300039,3.95078499 11.3704624,3.95078499 11.5804508,4.14764502 L15.8472062,8.14764502 C15.8876221,8.1873973 15.9256843,8.24346979 15.9510685,8.30484545 L15.955006,8.31409163 Z" id="ic_arrow-left-copy-2" transform="translate(7.997507, 8.504945) scale(-1, 1) translate(-7.997507, -8.504945) "></path>
            </g>
        </g>
    </g>
</svg>