<?xml version="1.0" encoding="UTF-8"?>
<svg width="28px" height="28px" viewBox="0 0 28 28" version="1.1" xmlns="http://www.w3.org/2000/svg" xmlns:xlink="http://www.w3.org/1999/xlink">
    <!-- Generator: sketchtool 55.1 (78136) - https://sketchapp.com -->
    <title>12E51970-F5CB-45DD-9686-DBECC0BCA920</title>
    <desc>Created with sketchtool.</desc>
    <g id="new-design" stroke="none" stroke-width="1" fill="none" fill-rule="evenodd">
        <g id="homepage_UI" transform="translate(-80.000000, -2447.000000)" fill="#000000" fill-rule="nonzero">
            <g id="Group-11" transform="translate(80.000000, 2169.000000)">
                <g id="Group-7" transform="translate(0.000000, 278.000000)">
                    <path d="M9.36307422,18.6369258 C9.50011315,18.7740384 9.57894737,18.964051 9.57894737,19.1578947 C9.57894737,19.3517385 9.50011315,19.5418248 9.36307422,19.6788637 C9.22522485,19.8159026 9.03594904,19.8947368 8.84210526,19.8947368 C8.64826149,19.8947368 8.45817524,19.8158289 8.32039954,19.6788637 C8.18336061,19.5417511 8.10526316,19.3517385 8.10526316,19.1578947 C8.10526316,18.964051 8.18336061,18.7739647 8.32039954,18.6369258 C8.45817524,18.4998869 8.6475984,18.4210526 8.84210526,18.4210526 C9.03594904,18.4210526 9.22603529,18.4998869 9.36307422,18.6369258 Z M27.0141731,19.6630367 C27.6498405,20.2988273 28,21.1441182 28,22.0433029 C28,22.9424876 27.6499273,23.7876916 27.0140863,24.4234823 L25.9200441,25.517674 C24.2652261,27.1725869 22.091634,28 19.9179552,28 C17.7442764,28 15.5705975,27.1725002 13.9158663,25.5174137 L11.668424,23.2698425 C11.329546,22.9308583 11.329546,22.3812457 11.668424,22.0423482 C12.007302,21.7035376 12.5568831,21.7036244 12.8957611,22.0423482 L15.1432034,24.2899194 C17.5190809,26.6661067 21.2394492,26.8970429 23.8778378,24.9843771 L19.7758955,20.8821995 C19.4370175,20.5432153 19.4370175,19.9936027 19.7758955,19.6547052 C20.1148602,19.3158946 20.6644414,19.3158946 21.0033194,19.6547052 L25.1654006,23.8170251 L25.7867492,23.1956409 C26.0947334,22.8877259 26.2643025,22.4782719 26.2643025,22.0429557 C26.2643025,21.6076396 26.0946466,21.1981856 25.786836,20.8902706 L21.2139357,16.3171948 C20.5783551,15.681491 19.5441914,15.681491 18.9086108,16.3171948 L18.6106064,16.6152163 C17.5199487,17.7059366 15.7454603,17.7058498 14.6548025,16.6153031 L11.3838706,13.3441836 C10.932525,12.8928121 10.6552612,12.3142999 10.5837541,11.689531 L6.24793819,7.35355332 C5.9090602,7.01456912 5.9090602,6.46495648 6.24793819,6.12605905 C6.58690296,5.78724842 7.13648409,5.78724842 7.47536208,6.12605905 L11.0872547,9.73815881 C11.1758577,9.61492339 11.2744403,9.49767616 11.3838706,9.38823963 L11.6817882,9.09021819 C12.3174556,8.4546011 12.3174556,7.42037817 11.6817882,6.78476108 L7.10897466,2.21168536 C6.47339402,1.57598149 5.43923038,1.57598149 4.80364974,2.21168536 L3.70952075,3.30587708 C1.07677288,5.93877592 1.07677288,10.2227691 3.70952075,12.8556679 L6.69260165,15.8389199 C7.03147964,16.1779041 7.03147964,16.7275167 6.69260165,17.0664142 C6.35363688,17.4052248 5.80405575,17.4052248 5.46517776,17.0664142 L2.48209687,14.0831622 C-0.827365622,10.77351 -0.827365622,5.38820864 2.48209687,2.0784696 L3.57631263,0.984277875 C4.8885211,-0.328092625 7.02401651,-0.328092625 8.33639855,0.984277875 L12.9092988,5.55744039 C14.2216809,6.86989767 14.2216809,9.00542874 12.9092988,10.317886 L12.6113813,10.6159075 C12.4108315,10.816382 12.3004466,11.0829003 12.3004466,11.3664286 C12.3004466,11.6499568 12.4108315,11.9164751 12.6112945,12.1169497 L15.8822264,15.3880692 C16.2960828,15.8019493 16.9694997,15.8020361 17.3832693,15.3880692 L17.6811869,15.0900477 C18.9936557,13.7775904 21.1290644,13.7776772 22.4413596,15.0899609 L27.0141731,19.6630367 Z" id="Combined-Shape-Copy-2"></path>
                </g>
            </g>
        </g>
    </g>
</svg>