<?xml version="1.0" encoding="UTF-8"?>
<svg width="24px" height="40px" viewBox="0 0 24 40" version="1.1" xmlns="http://www.w3.org/2000/svg" xmlns:xlink="http://www.w3.org/1999/xlink">
    <!-- Generator: sketchtool 55.1 (78136) - https://sketchapp.com -->
    <title>ACB0604A-FE28-4D19-9EAA-6119CD76A3B5</title>
    <desc>Created with sketchtool.</desc>
    <g id="new-design" stroke="none" stroke-width="1" fill="none" fill-rule="evenodd">
        <g id="homepage_UI" transform="translate(-862.000000, -1637.000000)" fill="#FFFFFF" fill-rule="nonzero">
            <g id="Group-19" transform="translate(224.000000, 1612.000000)">
                <g id="Group-17" transform="translate(584.000000, 25.000000)">
                    <path d="M66,8 C66.5522847,8 67,8.44771525 67,9 L67,13 C67,13.5522847 66.5522847,14 66,14 C65.4477153,14 65,13.5522847 65,13 L65,9 C65,8.44771525 65.4477153,8 66,8 Z M66,0 C72.627417,0 78,5.372583 78,12 L78,28 C78,34.627417 72.627417,40 66,40 C59.372583,40 54,34.627417 54,28 L54,12 C54,5.372583 59.372583,0 66,0 Z M66,2 C60.4771525,2 56,6.4771525 56,12 L56,28 C56,33.5228475 60.4771525,38 66,38 C71.5228475,38 76,33.5228475 76,28 L76,12 C76,6.4771525 71.5228475,2 66,2 Z" id="ic_graphic-design"></path>
                </g>
            </g>
        </g>
    </g>
</svg>