<?xml version="1.0" encoding="UTF-8"?>
<svg width="30px" height="50px" viewBox="0 0 30 50" version="1.1" xmlns="http://www.w3.org/2000/svg" xmlns:xlink="http://www.w3.org/1999/xlink">
    <!-- Generator: sketchtool 55.1 (78136) - https://sketchapp.com -->
    <title>E1CB15A1-54D3-470A-B555-2A248D23EB2D</title>
    <desc>Created with sketchtool.</desc>
    <g id="new-design" stroke="none" stroke-width="1" fill="none" fill-rule="evenodd">
        <g id="homepage_UI" transform="translate(-589.000000, -1632.000000)" fill="#FFFFFF" fill-rule="nonzero">
            <g id="Group-19" transform="translate(224.000000, 1612.000000)">
                <g id="Group-15" transform="translate(300.000000, 20.000000)">
                    <path d="M78,6 L83,6 C83.5522847,6 84,6.44771525 84,7 C84,7.55228475 83.5522847,8 83,8 L78,8 C77.4477153,8 77,7.55228475 77,7 C77,6.44771525 77.4477153,6 78,6 Z M80,42 L82,42 C82.5522847,42 83,42.4477153 83,43 C83,43.5522847 82.5522847,44 82,44 L80,44 C79.4477153,44 79,43.5522847 79,43 C79,42.4477153 79.4477153,42 80,42 Z M69,0 L91,0 C93.209139,0 95,1.790861 95,4 L95,46 C95,48.209139 93.209139,50 91,50 L69,50 C66.790861,50 65,48.209139 65,46 L65,4 C65,1.790861 66.790861,0 69,0 Z M69,2 C67.8954305,2 67,2.8954305 67,4 L67,46 C67,47.1045695 67.8954305,48 69,48 L91,48 C92.1045695,48 93,47.1045695 93,46 L93,4 C93,2.8954305 92.1045695,2 91,2 L69,2 Z" id="ic_mobile-app"></path>
                </g>
            </g>
        </g>
    </g>
</svg>