<?xml version="1.0" encoding="UTF-8"?>
<svg width="29px" height="18px" viewBox="0 0 29 18" version="1.1" xmlns="http://www.w3.org/2000/svg" xmlns:xlink="http://www.w3.org/1999/xlink">
    <!-- Generator: sketchtool 55.1 (78136) - https://sketchapp.com -->
    <title>7511912E-A23E-4D48-B4F0-D9EE7F1339BE</title>
    <desc>Created with sketchtool.</desc>
    <g id="new-design" stroke="none" stroke-width="1" fill="none" fill-rule="evenodd">
        <g id="homepage_UI" transform="translate(-80.000000, -2502.000000)" fill="#000000" fill-rule="nonzero">
            <g id="Group-11" transform="translate(80.000000, 2169.000000)">
                <g id="Group-9" transform="translate(0.000000, 331.000000)">
                    <path d="M13.5625962,18.7709389 C13.4277597,18.6370323 13.2407284,18.56 13.05,18.56 C12.8593441,18.56 12.6722403,18.6369603 12.5374038,18.7709389 C12.4025672,18.9048455 12.325,19.0905869 12.325,19.28 C12.325,19.4694131 12.4025672,19.6551545 12.5374038,19.7889891 C12.6722403,19.9228957 12.8592716,20 13.05,20 C13.2406559,20 13.4276872,19.9229677 13.5625962,19.7889891 C13.6974328,19.6551545 13.775,19.4694131 13.775,19.28 C13.775,19.089795 13.6974328,18.9048455 13.5625962,18.7709389 Z M27.932733,2.47062527 C27.923181,2.46345923 27.9132025,2.4569598 27.9033947,2.4502104 C27.4885643,2.16690199 26.984525,2 26.4409984,2 L2.55883105,2 C2.04933345,2 1.57471775,2.14673709 1.17549473,2.39846495 C1.1437684,2.41663002 1.11315078,2.43679491 1.08364188,2.45912628 C0.428731917,2.91241974 0,3.65785417 0,4.49994676 L0,17.4999699 C0,18.878432 1.14786212,20 2.55883105,20 L8.87058021,20 C9.34169919,20 9.72352389,19.6268662 9.72352389,19.1666566 C9.72352389,18.7065304 9.34169919,18.3333133 8.87058021,18.3333133 L3.39548514,18.3333133 L10.3956616,10.3421829 L14.0007793,12.8840426 C14.1497737,12.9890334 14.3247802,13.0416121 14.4999574,13.0416121 C14.6746228,13.0416121 14.8492882,12.9892834 14.9981119,12.8847092 L18.6084321,10.3470158 L25.6045149,18.3333133 L16.888302,18.3333133 C16.4172683,18.3333133 16.0353583,18.7064471 16.0353583,19.1666566 C16.0353583,19.6268662 16.417183,20 16.888302,20 L26.4411689,20 C27.8521379,20 29,18.8785153 29,17.4999699 L29,4.50003009 C29,3.66510353 28.5782615,2.92500197 27.932733,2.47062527 Z M1.7255884,17.676621 C1.71296609,17.6196261 1.70588737,17.5607146 1.70588737,17.5000532 L1.70588737,4.50003009 C1.70588737,4.41087127 1.72064182,4.32512881 1.74733629,4.24446924 L9.00780512,9.3636856 L1.7255884,17.676621 Z M14.5008102,11.1812757 L3.84306523,3.66668673 L25.1916461,3.66668673 L14.5008102,11.1812757 Z M27.2939421,17.5000532 C27.2939421,17.5606312 27.2868633,17.6196261 27.274241,17.676621 L19.997909,9.37035168 L27.2592307,4.26638398 C27.2814903,4.34062744 27.2939421,4.41887056 27.2939421,4.49994676 L27.2939421,17.5000532 Z" id="Combined-Shape-Copy"></path>
                </g>
            </g>
        </g>
    </g>
</svg>