<?xml version="1.0" encoding="UTF-8"?>
<svg width="25px" height="24px" viewBox="0 0 25 24" version="1.1" xmlns="http://www.w3.org/2000/svg" xmlns:xlink="http://www.w3.org/1999/xlink">
    <!-- Generator: sketchtool 55.1 (78136) - https://sketchapp.com -->
    <title>9E8C3EDC-7380-48D7-BD77-365D19340932</title>
    <desc>Created with sketchtool.</desc>
    <defs>
        <path d="M11.9646398,0.0173098274 L9.24204759,21.2994329 L9.14822596,21.231678 L2.57368027,22.4977891 C0.298722529,22.9358952 -0.646254789,21.650458 0.475067029,19.6046955 L10.6515811,1.03845454 C11.0153274,0.374828373 11.4884815,0.0335642023 11.9646398,0.0173098274 Z M12.07786,0.0195711287 C12.5385502,0.0537195862 12.9941544,0.392547074 13.3481887,1.03845454 L23.5247028,19.6046955 C24.6406284,21.6406131 23.7069487,22.9370317 21.4260896,22.4977891 L14.8515439,21.231678 L12.6756883,22.8030079 C12.5091392,22.9232841 12.2958945,22.9895141 12.07786,23.0022004 L12.07786,0.0195711284 Z" id="path-1"></path>
        <filter x="-6.2%" y="-2.1%" width="108.3%" height="108.6%" filterUnits="objectBoundingBox" id="filter-3">
            <feOffset dx="-1" dy="1" in="SourceAlpha" result="shadowOffsetOuter1"></feOffset>
            <feColorMatrix values="0 0 0 0 0   0 0 0 0 0   0 0 0 0 0  0 0 0 0.1 0" type="matrix" in="shadowOffsetOuter1"></feColorMatrix>
        </filter>
    </defs>
    <g id="new-design" stroke="none" stroke-width="1" fill="none" fill-rule="evenodd">
        <g id="homepage_UI" transform="translate(-789.000000, -2651.000000)">
            <g id="Group-12" transform="translate(730.000000, 2105.000000)">
                <g id="Group-6-Copy" transform="translate(40.000000, 531.000000)">
                    <g id="Group-3" transform="translate(20.000000, 15.000000)">
                        <mask id="mask-2" fill="white">
                            <use xlink:href="#path-1"></use>
                        </mask>
                        <g id="Combined-Shape">
                            <use fill="black" fill-opacity="1" filter="url(#filter-3)" xlink:href="#path-1"></use>
                            <use fill="#FFFFFF" fill-rule="evenodd" xlink:href="#path-1"></use>
                        </g>
                    </g>
                </g>
            </g>
        </g>
    </g>
</svg>