<?xml version="1.0" encoding="UTF-8"?>
<svg width="1379px" height="942px" viewBox="0 0 1379 942" version="1.1" xmlns="http://www.w3.org/2000/svg" xmlns:xlink="http://www.w3.org/1999/xlink">
    <!-- Generator: sketchtool 55.1 (78136) - https://sketchapp.com -->
    <title>BB4F4BD6-D0F9-4452-BF51-47F3BEB513F9</title>
    <desc>Created with sketchtool.</desc>
    <g id="new-design" stroke="none" stroke-width="1" fill="none" fill-rule="evenodd">
        <g id="homepage_UI" transform="translate(-20.000000, -112.000000)" fill-rule="nonzero">
            <g id="confetti" transform="translate(20.000000, 112.000000)">
                <rect id="Rectangle-Copy-5" stroke="#801CF7" stroke-width="3" opacity="0.300000012" transform="translate(326.970563, 443.970563) rotate(-315.000000) translate(-326.970563, -443.970563) " x="314.970563" y="431.970563" width="24" height="24" rx="2"></rect>
                <rect id="Rectangle-Copy-4" stroke="#801CF7" stroke-width="3" transform="translate(1125.970563, 105.970563) rotate(-315.000000) translate(-1125.970563, -105.970563) " x="1113.97056" y="93.9705627" width="24" height="24" rx="2"></rect>
                <rect id="Rectangle-Copy-9" fill="#811CF8" transform="translate(952.970563, 843.970563) rotate(-315.000000) translate(-952.970563, -843.970563) " x="940.970563" y="831.970563" width="24" height="24" rx="2"></rect>
                <rect id="Rectangle-Copy-13" fill="#811CF8" transform="translate(82.970563, 647.970563) rotate(-315.000000) translate(-82.970563, -647.970563) " x="70.9705627" y="635.970563" width="24" height="24" rx="2"></rect>
                <rect id="Rectangle-Copy-3" fill="#811CF8" transform="translate(769.627417, 16.970563) rotate(-315.000000) translate(-769.627417, -16.970563) " x="757.627417" y="4.97056275" width="24" height="24" rx="2"></rect>
                <rect id="Rectangle-Copy-7" fill="#811CF8" transform="translate(1235.970563, 481.970563) rotate(-315.000000) translate(-1235.970563, -481.970563) " x="1223.97056" y="469.970563" width="24" height="24" rx="2"></rect>
                <rect id="Rectangle-Copy-2" fill="#811CF8" opacity="0.100000001" transform="translate(769.627417, 32.970563) rotate(-315.000000) translate(-769.627417, -32.970563) " x="753.627417" y="16.9705627" width="32" height="32" rx="2"></rect>
                <rect id="Rectangle-Copy" fill="#811CF8" transform="translate(11.313708, 262.313708) rotate(-315.000000) translate(-11.313708, -262.313708) " x="3.3137085" y="254.313708" width="16" height="16" rx="2"></rect>
                <rect id="Rectangle-Copy-6" fill="#811CF8" transform="translate(1368.313708, 309.313708) rotate(-315.000000) translate(-1368.313708, -309.313708) " x="1360.31371" y="301.313708" width="16" height="16" rx="2"></rect>
                <circle id="Oval" fill="#F67534" cx="666" cy="892" r="12"></circle>
                <circle id="Oval-Copy-2" fill="#F67534" cx="967" cy="511" r="12"></circle>
                <circle id="Oval-Copy-4" fill="#F67534" opacity="0.100000001" cx="1086" cy="309" r="16"></circle>
                <circle id="Oval-Copy-9" fill="#F67534" opacity="0.100000001" cx="1315" cy="638" r="16"></circle>
                <circle id="Oval-Copy-8" fill="#F67534" opacity="0.100000001" cx="224" cy="60" r="16"></circle>
                <circle id="Oval-Copy-12" fill="#F67534" opacity="0.100000001" cx="568" cy="631" r="16"></circle>
                <circle id="Oval-Copy-5" fill="#F67534" cx="1101" cy="301" r="8"></circle>
                <circle id="Oval-Copy-13" stroke="#F67534" stroke-width="3" cx="584" cy="640" r="8"></circle>
                <circle id="Oval-Copy-10" fill="#F67534" cx="587" cy="145" r="8"></circle>
                <circle id="Oval-Copy-7" stroke="#F67534" stroke-width="3" cx="815" cy="286" r="12"></circle>
                <circle id="Oval-Copy-11" stroke="#F67534" stroke-width="3" opacity="0.5" cx="34" cy="928" r="12"></circle>
                <circle id="Oval-Copy-6" stroke="#F67534" stroke-width="3" cx="1356" cy="851" r="12"></circle>
                <rect id="Rectangle-Copy-12" fill="#811CF8" opacity="0.100000001" transform="translate(824.627417, 709.627417) rotate(-315.000000) translate(-824.627417, -709.627417) " x="808.627417" y="693.627417" width="32" height="32" rx="2"></rect>
            </g>
        </g>
    </g>
</svg>