<?xml version="1.0" encoding="UTF-8"?>
<svg width="68px" height="44px" viewBox="0 0 68 44" version="1.1" xmlns="http://www.w3.org/2000/svg" xmlns:xlink="http://www.w3.org/1999/xlink">
    <!-- Generator: sketchtool 55.1 (78136) - https://sketchapp.com -->
    <title>99C637A9-DED9-496A-BF1A-424D5BA0D2A6</title>
    <desc>Created with sketchtool.</desc>
    <g id="new-design" stroke="none" stroke-width="1" fill="none" fill-rule="evenodd">
        <g id="homepage_UI" transform="translate(-1078.000000, -1637.000000)" fill="#FFFFFF" fill-rule="nonzero">
            <g id="Group-19" transform="translate(224.000000, 1612.000000)">
                <g id="Group-18" transform="translate(841.000000, 25.000000)">
                    <path d="M52,3 L73.1260175,3 C73.5700603,1.27477279 75.1361606,0 77,0 C79.209139,0 81,1.790861 81,4 C81,6.209139 79.209139,8 77,8 C75.1361606,8 73.5700603,6.72522721 73.1260175,5 L55.1657895,5 C66.0403991,8.11120753 74,18.1260716 74,30 L77,30 L77,38 L69,38 L69,30 L72,30 C72,18.1080148 63.3508534,8.23614613 52,6.33183376 L52,8 L44,8 L44,6.33183376 C32.6491466,8.23614613 24,18.1080148 24,30 L27,30 L27,38 L19,38 L19,30 L22,30 C22,18.1260716 29.9596009,8.11120753 40.8342105,5 L20.8739825,5 C20.4299397,6.72522721 18.8638394,8 17,8 C14.790861,8 13,6.209139 13,4 C13,1.790861 14.790861,0 17,0 C18.8638394,0 20.4299397,1.27477279 20.8739825,3 L44,3 L44,0 L52,0 L52,3 Z M44,38 L52,38 L54,27 L49,21.1666667 L49,29 L47,29 L47,21.1666667 L42,27 L44,38 Z M53.4285714,38 L56,38 L56,44 L40,44 L40,38 L42.5714286,38 L40,26 L48,18 L56,26 L53.4285714,38 Z M53,40 L43,40 L42,40 L42,42 L54,42 L54,40 L53,40 Z M17,6 C18.1045695,6 19,5.1045695 19,4 C19,2.8954305 18.1045695,2 17,2 C15.8954305,2 15,2.8954305 15,4 C15,5.1045695 15.8954305,6 17,6 Z M77,6 C78.1045695,6 79,5.1045695 79,4 C79,2.8954305 78.1045695,2 77,2 C75.8954305,2 75,2.8954305 75,4 C75,5.1045695 75.8954305,6 77,6 Z M46,29 L50,29 L50,31 L46,31 L46,29 Z M20.7777778,31.7777778 L20.7777778,36.2222222 L25.2222222,36.2222222 L25.2222222,31.7777778 L20.7777778,31.7777778 Z M70.7777778,31.7777778 L70.7777778,36.2222222 L75.2222222,36.2222222 L75.2222222,31.7777778 L70.7777778,31.7777778 Z" id="ic_illustraiton"></path>
                </g>
            </g>
        </g>
    </g>
</svg>