<?xml version="1.0" encoding="UTF-8"?>
<svg width="22px" height="28px" viewBox="0 0 22 28" version="1.1" xmlns="http://www.w3.org/2000/svg" xmlns:xlink="http://www.w3.org/1999/xlink">
    <!-- Generator: sketchtool 55.1 (78136) - https://sketchapp.com -->
    <title>591928F5-6DF6-40B9-A0D7-39AFA1A171F0</title>
    <desc>Created with sketchtool.</desc>
    <g id="new-design" stroke="none" stroke-width="1" fill="none" fill-rule="evenodd">
        <g id="homepage_UI" transform="translate(-83.000000, -2395.000000)" fill="#000000" fill-rule="nonzero">
            <g id="Group-11" transform="translate(80.000000, 2169.000000)">
                <g id="Group-10" transform="translate(3.000000, 226.000000)">
                    <path d="M10.8594046,0 C4.87144226,0 -2.84217094e-14,4.87152387 -2.84217094e-14,10.8594046 C-2.84217094e-14,13.3469896 0.860424784,15.7723053 2.42474445,17.6996307 C2.43285114,17.7120356 2.7170015,18.0650303 3.27719552,18.758615 C3.55459132,19.1139493 4.06743485,19.1771162 4.42268753,18.8997205 C4.77794022,18.6223247 4.84118875,18.1094811 4.56379296,17.7542284 L3.80617387,16.8212515 C3.78699528,16.7904841 3.76569481,16.7606961 3.74219084,16.7322955 C2.38157223,15.0853855 1.63222002,12.9997347 1.63222002,10.8594862 C1.63222002,5.7716116 5.77152999,1.63230163 10.8594046,1.63230163 C15.9472793,1.63230163 20.0865892,5.7716116 20.0865892,10.8594862 C20.0865892,12.9769653 19.3510293,15.0455593 18.0154653,16.6842266 C18.0088276,16.6923877 15.6233924,19.7501071 10.8591598,25.8573847 L8.71582927,23.2468946 C8.43851509,22.8915603 7.92567156,22.8283118 7.57033726,23.1057076 C7.21500296,23.3830218 7.15183605,23.8958653 7.42915023,24.2511996 L10.2159835,27.6860424 C10.3706363,27.8841939 10.6080427,28 10.8594046,28 C11.1108481,28 11.3481729,27.8841123 11.5027442,27.6858792 L19.2921061,17.7018342 C20.8599351,15.7662661 21.7187277,13.3411952 21.7187277,10.8594862 C21.7187277,4.87152387 16.847367,0 10.8594046,0 Z M6.69512169,20.5137412 C6.54332523,20.3619448 6.33276885,20.274621 6.11813191,20.274621 C5.90349498,20.274621 5.6929386,20.3619448 5.54114214,20.5137412 C5.38934568,20.6655377 5.3020219,20.8760941 5.3020219,21.090731 C5.3020219,21.3053679 5.38934568,21.5159243 5.54114214,21.6677208 C5.6929386,21.8195172 5.90349498,21.906841 6.11813191,21.906841 C6.33276885,21.906841 6.54332523,21.8195172 6.69512169,21.6677208 C6.84691815,21.5159243 6.93424193,21.3053679 6.93424193,21.090731 C6.93424193,20.8760941 6.84691815,20.6655377 6.69512169,20.5137412 Z M10.868137,4.32024156 C7.1780956,4.32024156 4.17603492,7.32230224 4.17603492,11.0123436 C4.17603492,14.7023851 7.17817721,17.7044457 10.868137,17.7044457 C14.5581784,17.7044457 17.5602391,14.7023851 17.5602391,11.0123436 C17.5602391,7.32230224 14.5581784,4.32024156 10.868137,4.32024156 Z M10.868137,16.0722257 C8.07810172,16.0722257 5.80825494,13.8023789 5.80825494,11.0123436 C5.80825494,8.22230835 8.07810172,5.95246158 10.868137,5.95246158 C13.6581723,5.95246158 15.9280191,8.22230835 15.9280191,11.0123436 C15.9280191,13.8023789 13.6581723,16.0722257 10.868137,16.0722257 Z" id="Combined-Shape-Copy-3"></path>
                </g>
            </g>
        </g>
    </g>
</svg>