<?xml version="1.0" encoding="UTF-8"?>
<svg width="74px" height="39px" viewBox="0 0 74 39" version="1.1" xmlns="http://www.w3.org/2000/svg" xmlns:xlink="http://www.w3.org/1999/xlink">
    <!-- Generator: sketchtool 55.2 (78181) - https://sketchapp.com -->
    <title>D7D57957-D084-464C-AD56-C74989A09849</title>
    <desc>Created with sketchtool.</desc>
    <g id="new-design" stroke="none" stroke-width="1" fill="none" fill-rule="evenodd">
        <g id="homepage_UI" transform="translate(-1072.000000, -1726.000000)" fill="#FFFFFF" fill-rule="nonzero">
            <path d="M1096,1735 C1104.28427,1735 1111,1741.71573 1111,1750 C1111,1758.28427 1104.28427,1765 1096,1765 C1087.71573,1765 1081,1758.28427 1081,1750 L1072,1750 L1072,1726 L1096,1726 L1096,1735 Z M1096,1737 L1096,1750 L1083,1750 C1083,1757.1797 1088.8203,1763 1096,1763 C1103.1797,1763 1109,1757.1797 1109,1750 C1109,1742.8203 1103.1797,1737 1096,1737 Z M1094,1735.13217 L1094,1728 L1074,1728 L1074,1748 L1081.13217,1748 C1082.02278,1741.31556 1087.31556,1736.02278 1094,1735.13217 Z M1094,1737.1529 C1088.42176,1738.01424 1084.01424,1742.42176 1083.1529,1748 L1094,1748 L1094,1737.1529 Z M1131,1726 L1146,1756 L1116,1756 L1131,1726 Z M1119.23607,1754 L1142.76393,1754 L1131,1730.47214 L1119.23607,1754 Z" id="ic_motion-graphics"></path>
        </g>
    </g>
</svg>