<?xml version="1.0" encoding="UTF-8"?>
<svg width="48px" height="34px" viewBox="0 0 48 34" version="1.1" xmlns="http://www.w3.org/2000/svg" xmlns:xlink="http://www.w3.org/1999/xlink">
    <!-- Generator: sketchtool 55.1 (78136) - https://sketchapp.com -->
    <title>ABF7519B-F654-4E48-BBB8-4810AC1BC3BA</title>
    <desc>Created with sketchtool.</desc>
    <g id="new-design" stroke="none" stroke-width="1" fill="none" fill-rule="evenodd">
        <g id="homepage_UI" transform="translate(-850.000000, -1803.000000)" fill="#FFFFFF" fill-rule="nonzero">
            <g id="Group-19" transform="translate(224.000000, 1612.000000)">
                <g id="Group-16" transform="translate(593.000000, 191.000000)">
                    <path d="M45.9146471,2 L77,2 C79.209139,2 81,3.790861 81,6 L81,30 C81,32.209139 79.209139,34 77,34 L37,34 C34.790861,34 33,32.209139 33,30 L33,6 C33,3.790861 34.790861,2 37,2 L38.0853529,2 C38.0300771,1.84361054 38,1.67531771 38,1.5 C38,0.671572875 38.6715729,1.52179594e-16 39.5,0 L44.5,0 C45.3284271,-1.52179594e-16 46,0.671572875 46,1.5 C46,1.67531771 45.9699229,1.84361054 45.9146471,2 Z M70,7 L74,7 C74.5522847,7 75,7.44771525 75,8 C75,8.55228475 74.5522847,9 74,9 L70,9 C69.4477153,9 69,8.55228475 69,8 C69,7.44771525 69.4477153,7 70,7 Z M57,28 C51.4771525,28 47,23.5228475 47,18 C47,12.4771525 51.4771525,8 57,8 C62.5228475,8 67,12.4771525 67,18 C67,23.5228475 62.5228475,28 57,28 Z M57,26 C61.418278,26 65,22.418278 65,18 C65,13.581722 61.418278,10 57,10 C52.581722,10 49,13.581722 49,18 C49,22.418278 52.581722,26 57,26 Z M57,23 C54.2385763,23 52,20.7614237 52,18 C52,15.2385763 54.2385763,13 57,13 C59.7614237,13 62,15.2385763 62,18 C62,20.7614237 59.7614237,23 57,23 Z M37,4 C35.8954305,4 35,4.8954305 35,6 L35,30 C35,31.1045695 35.8954305,32 37,32 L77,32 C78.1045695,32 79,31.1045695 79,30 L79,6 C79,4.8954305 78.1045695,4 77,4 L37,4 Z" id="ic_photography"></path>
                </g>
            </g>
        </g>
    </g>
</svg>