<?xml version="1.0" encoding="UTF-8"?>
<svg width="58px" height="44px" viewBox="0 0 58 44" version="1.1" xmlns="http://www.w3.org/2000/svg" xmlns:xlink="http://www.w3.org/1999/xlink">
    <!-- Generator: sketchtool 55.1 (78136) - https://sketchapp.com -->
    <title>A8897CDF-4CF2-4514-80CF-AABDDAC003B0</title>
    <desc>Created with sketchtool.</desc>
    <g id="new-design" stroke="none" stroke-width="1" fill="none" fill-rule="evenodd">
        <g id="homepage_UI" transform="translate(-312.000000, -1635.000000)" fill="#FFFFFF" fill-rule="nonzero">
            <g id="Group-19" transform="translate(224.000000, 1612.000000)">
                <g id="Group-2" transform="translate(59.000000, 23.000000)">
                    <path d="M31,9 L85,9 L85,4 C85,2.8954305 84.1045695,2 83,2 L33,2 C31.8954305,2 31,2.8954305 31,4 L31,9 Z M85,11 L31,11 L31,40 C31,41.1045695 31.8954305,42 33,42 L83,42 C84.1045695,42 85,41.1045695 85,40 L85,11 Z M34.5,7 C33.6715729,7 33,6.32842712 33,5.5 C33,4.67157288 33.6715729,4 34.5,4 C35.3284271,4 36,4.67157288 36,5.5 C36,6.32842712 35.3284271,7 34.5,7 Z M39.5,7 C38.6715729,7 38,6.32842712 38,5.5 C38,4.67157288 38.6715729,4 39.5,4 C40.3284271,4 41,4.67157288 41,5.5 C41,6.32842712 40.3284271,7 39.5,7 Z M44.5,7 C43.6715729,7 43,6.32842712 43,5.5 C43,4.67157288 43.6715729,4 44.5,4 C45.3284271,4 46,4.67157288 46,5.5 C46,6.32842712 45.3284271,7 44.5,7 Z M33,0 L83,0 C85.209139,0 87,1.790861 87,4 L87,40 C87,42.209139 85.209139,44 83,44 L33,44 C30.790861,44 29,42.209139 29,40 L29,4 C29,1.790861 30.790861,0 33,0 Z" id="ic_ui/ux"></path>
                </g>
            </g>
        </g>
    </g>
</svg>