<?xml version="1.0" encoding="UTF-8"?>
<svg width="48px" height="32px" viewBox="0 0 48 32" version="1.1" xmlns="http://www.w3.org/2000/svg" xmlns:xlink="http://www.w3.org/1999/xlink">
    <!-- Generator: sketchtool 55.1 (78136) - https://sketchapp.com -->
    <title>60D742FA-3C2D-4DBD-88D0-0662E03281F1</title>
    <desc>Created with sketchtool.</desc>
    <g id="new-design" stroke="none" stroke-width="1" fill="none" fill-rule="evenodd">
        <g id="homepage_UI" transform="translate(-580.000000, -1804.000000)" fill="#FFFFFF" fill-rule="nonzero">
            <g id="Group-19" transform="translate(224.000000, 1612.000000)">
                <g id="Group-14" transform="translate(324.000000, 192.000000)">
                    <path d="M68,14.1187192 L74.1829975,10.9660504 C76.1510619,9.96254764 78.559993,10.7444793 79.5634957,12.7125437 C79.8504169,13.275252 80,13.8979098 80,14.5295462 L80,25.4195869 C80,27.6287259 78.209139,29.4195869 76,29.4195869 C75.3590313,29.4195869 74.7274486,29.2655528 74.1584492,28.9704587 L68,25.7765678 L68,28 C68,30.209139 66.209139,32 64,32 L36,32 C33.790861,32 32,30.209139 32,28 L32,12 C32,9.790861 33.790861,8 36,8 L54,8 L54,3.06569221 C54,2.51340746 54.4477153,2.06569221 55,2.06569221 L63.1483447,2.06569221 C63.5410615,0.866312507 64.6693617,0 66,0 L77,0 C78.6568542,0 80,1.34314575 80,3 C80,4.65685425 78.6568542,6 77,6 L66,6 C64.7184624,6 63.6246058,5.19644197 63.1947966,4.06569221 L56,4.06569221 L56,8 L64,8 C66.209139,8 68,9.790861 68,12 L68,14.1187192 Z M68,16.3637058 L68,23.5236 L75.0792246,27.1950228 C75.3637243,27.3425699 75.6795157,27.4195869 76,27.4195869 C77.1045695,27.4195869 78,26.5241564 78,25.4195869 L78,14.5295462 C78,14.213728 77.9252085,13.9023991 77.7817479,13.6210449 C77.2799965,12.6370127 76.0755309,12.2460469 75.0914988,12.7477983 L68,16.3637058 Z M66,15.1385057 L66,12 C66,10.8954305 65.1045695,10 64,10 L36,10 C34.8954305,10 34,10.8954305 34,12 L34,28 C34,29.1045695 34.8954305,30 36,30 L64,30 C65.1045695,30 66,29.1045695 66,28 L66,24.7393291 L66,15.1385057 Z M66,2 C65.4477153,2 65,2.44771525 65,3 C65,3.55228475 65.4477153,4 66,4 L77,4 C77.5522847,4 78,3.55228475 78,3 C78,2.44771525 77.5522847,2 77,2 L66,2 Z M39,19 L55,19 C55.5522847,19 56,19.4477153 56,20 C56,20.5522847 55.5522847,21 55,21 L39,21 C38.4477153,21 38,20.5522847 38,20 C38,19.4477153 38.4477153,19 39,19 Z M61,21 C60.4477153,21 60,20.5522847 60,20 C60,19.4477153 60.4477153,19 61,19 C61.5522847,19 62,19.4477153 62,20 C62,20.5522847 61.5522847,21 61,21 Z" id="ic_video"></path>
                </g>
            </g>
        </g>
    </g>
</svg>