<?xml version="1.0" encoding="UTF-8"?>
<svg width="63px" height="50px" viewBox="0 0 63 50" version="1.1" xmlns="http://www.w3.org/2000/svg" xmlns:xlink="http://www.w3.org/1999/xlink">
    <!-- Generator: sketchtool 55.1 (78136) - https://sketchapp.com -->
    <title>D620CA2D-C1E2-4E67-893B-6A8EC98EF49E</title>
    <desc>Created with sketchtool.</desc>
    <defs>
        <linearGradient x1="75.8522393%" y1="30.9012333%" x2="22.7372226%" y2="70.1382377%" id="linearGradient-1">
            <stop stop-color="#F67534" offset="0%"></stop>
            <stop stop-color="#801CF7" offset="100%"></stop>
        </linearGradient>
    </defs>
    <g id="new-design" stroke="none" stroke-width="1" fill="none" fill-rule="evenodd">
        <g id="homepage_UI" transform="translate(-80.000000, -40.000000)">
            <g id="logo" transform="translate(80.000000, 40.000000)">
                <path d="M56.8801796,49.2155636 C55.322834,48.4391784 53.5671334,48.0025993 51.7096838,48.0025993 C50.2622246,48.0025993 48.876473,48.2679307 47.5982296,48.752743 C46.3418302,46.5959524 44.0080927,45.1468616 41.3366533,45.1468616 C41.195115,45.1468616 41.0545231,45.1509294 40.9149877,45.1589546 C40.3678602,42.5911109 38.2967495,40.5887169 35.6967269,40.1480487 C35.5525194,38.9325507 34.8968277,37.8745854 33.9513253,37.1967449 C33.972018,37.067093 33.9827684,36.9341105 33.9827684,36.7986072 C33.9827684,35.4177172 32.8663071,34.2986072 31.4886853,34.2986072 C30.1110635,34.2986072 28.9946023,35.4177172 28.9946023,36.7986072 C28.9946023,36.9342254 29.0053709,37.0673187 29.026098,37.1970748 C28.0878361,37.8699139 27.4350555,38.9171171 27.2844405,40.1211022 C24.6017854,40.5005013 22.4497549,42.5355687 21.8913275,45.1614219 C21.7383807,45.1517637 21.5841461,45.1468616 21.428769,45.1468616 C18.7268448,45.1468616 16.3701525,46.6282639 15.1235983,48.8247427 C13.794111,48.2942611 12.3438984,48.0025993 10.8257111,48.0025993 C9.04865037,48.0025993 7.36466092,48.4023663 5.85841861,49.1171052 C2.32161668,44.0508901 0.246502159,37.8840036 0.246502159,31.2314754 C0.246502159,14.0708721 14.0507106,0.142662295 31.1360792,0 L31.6681939,0 C48.7561269,0.142662295 62.5616176,14.0708721 62.5616176,31.2314754 C62.5616176,37.9271602 60.4592989,44.130882 56.8801796,49.2155636 Z" id="Combined-Shape" fill="url(#linearGradient-1)"></path>
                <g id="plane" transform="translate(18.496113, 6.205839)">
                    <path d="M14.1264252,0.976786885 L25.4200783,23.0457443 C26.3932711,24.9183475 25.5008571,26.0596459 23.4698459,25.6509377 L15.9958787,24.1035016 L12.9891103,4.61852778e-14 C13.3955689,4.61852778e-14 13.8020276,0.325167213 14.1264252,0.976786885 M12.8249882,4.61852778e-14 L9.81950193,24.1035016 L2.34553469,25.6509377 C0.314523522,26.0596459 -0.579172681,24.9183475 0.395302375,23.0457443 L11.6889554,0.976786885 C12.013353,0.325167213 12.4198117,4.61852778e-14 12.8249882,4.61852778e-14" id="Fill-4" fill="#FFFFFF"></path>
                    <polygon id="Fill-6" fill="#FCD5C2" points="12.9894949 25.8394833 12.9882127 0.000899672145 15.9962634 24.1031161 13.957559 26.3677193"></polygon>
                </g>
            </g>
        </g>
    </g>
</svg>